<?xml version="1.0" standalone="no"?>
<!DOCTYPE svg PUBLIC "-//W3C//DTD SVG 20010904//EN"
 "http://www.w3.org/TR/2001/REC-SVG-20010904/DTD/svg10.dtd">
<svg version="1.0" xmlns="http://www.w3.org/2000/svg"
 width="180.000000pt" height="180.000000pt" viewBox="0 0 180.000000 180.000000"
 preserveAspectRatio="xMidYMid meet">
<metadata>
Created by potrace 1.11, written by Peter Selinger 2001-2013
</metadata>
<g transform="translate(0.000000,180.000000) scale(0.100000,-0.100000)"
fill="#000000" stroke="none">
<path d="M1247 1585 c-122 -63 -220 -300 -272 -658 l-18 -118 -49 -44 c-28
-25 -54 -45 -59 -45 -20 0 -21 36 -4 133 31 182 27 204 -31 210 -17 2 -41 11
-54 20 -96 67 -281 -66 -325 -233 -54 -205 109 -347 254 -221 l24 21 40 -36
c35 -32 44 -36 79 -31 22 3 57 17 79 31 21 14 41 26 43 26 2 0 7 -30 11 -67
11 -119 16 -147 31 -203 19 -65 70 -120 113 -120 41 0 92 39 119 91 20 40 24
63 25 145 1 95 -7 203 -19 251 -6 21 -3 22 34 19 51 -6 116 11 137 34 10 11
19 35 22 54 6 48 -14 55 -152 52 -98 -3 -110 -5 -126 -25 -10 -12 -20 -17 -23
-13 -3 5 20 40 52 78 175 209 231 318 238 466 4 91 -6 124 -48 167 -34 35 -75
40 -121 16z m44 -137 c6 -85 -11 -158 -59 -253 -28 -57 -73 -127 -78 -122 -2
2 12 65 31 141 47 186 102 306 106 234z m-585 -510 c-3 -24 -10 -58 -15 -76
-5 -18 -10 -33 -9 -35 0 -1 -5 -20 -11 -43 -21 -79 -78 -97 -92 -28 -11 61 39
171 94 205 18 10 33 19 35 19 2 0 1 -19 -2 -42z m445 -440 c2 -91 -2 -120 -17
-105 -8 8 -19 292 -13 337 4 37 28 -144 30 -232z"/>
</g>
</svg>
